<svg width="46" height="36" viewBox="0 0 46 36" fill="none" xmlns="http://www.w3.org/2000/svg">
<path d="M45.1689 10.9426C44.6815 10.537 43.8692 10.6182 43.4631 11.1049L40.6201 14.8363C38.8331 5.18321 29.6544 -1.22517 19.9884 0.47832C14.0587 1.53286 9.10388 5.50768 6.82951 11.0238C6.58583 11.6727 6.82951 12.3217 7.47933 12.6461C8.12915 12.9706 8.77897 12.6461 9.10388 11.9972C12.353 4.20978 21.3692 0.559439 29.1671 3.88531C33.9595 5.91327 37.371 10.1314 38.2645 15.2419L34.4468 12.2405C33.9595 11.8349 33.1472 11.9161 32.7411 12.4028C32.3349 12.8895 32.4162 13.7007 32.9035 14.1063L39.8891 19.6223L45.4125 12.6461C45.8187 12.1594 45.7374 11.3482 45.1689 10.9426Z" fill="url(#paint0_linear_1_292)"/>
<path d="M38.8331 23.3538C38.1833 23.1105 37.5335 23.3538 37.2086 24.0028C33.9595 31.7902 24.9433 35.4405 17.1454 32.1147C12.353 30.0867 8.94145 25.8685 8.04795 20.758L11.8656 23.7594C12.4342 24.165 13.1653 24.0839 13.5714 23.5972C13.9776 23.0294 13.8963 22.2993 13.409 21.8937L6.4234 16.3776L0.899933 23.3538C0.493796 23.8405 0.575024 24.6517 1.06239 25.0573C1.54975 25.4629 2.36203 25.3818 2.76816 24.8951L5.61112 21.2447C7.3169 30.8979 16.5768 37.3063 26.2429 35.5216C32.1725 34.4671 37.1274 30.4923 39.4017 24.9762C39.7267 24.3273 39.483 23.5972 38.8331 23.3538Z" fill="url(#paint1_linear_1_292)"/>
<defs>
<linearGradient id="paint0_linear_1_292" x1="6.73682" y1="0.204102" x2="47.2131" y2="4.28641" gradientUnits="userSpaceOnUse">
<stop offset="0.0916" stop-color="#C6FF8D"/>
<stop offset="0.565" stop-color="#61F8AF"/>
<stop offset="1" stop-color="#07E3E1"/>
</linearGradient>
<linearGradient id="paint1_linear_1_292" x1="0.639893" y1="16.3776" x2="41.0923" y2="20.4499" gradientUnits="userSpaceOnUse">
<stop offset="0.0916" stop-color="#C6FF8D"/>
<stop offset="0.565" stop-color="#61F8AF"/>
<stop offset="1" stop-color="#07E3E1"/>
</linearGradient>
</defs>
</svg>
