<svg width="39" height="44" viewBox="0 0 39 44" fill="none" xmlns="http://www.w3.org/2000/svg">
<g filter="url(#filter0_d_1_310)">
<path d="M27.533 15.7087C27.533 11.3321 23.9139 7.73712 19.5081 7.73712C15.1023 7.73712 11.4833 11.254 11.4833 15.7087C11.4833 20.0853 15.1023 23.6803 19.5081 23.6803C23.9139 23.6803 27.533 20.0853 27.533 15.7087ZM14.2369 15.7087C14.2369 12.8171 16.5971 10.4725 19.5081 10.4725C22.4191 10.4725 24.7793 12.8171 24.7793 15.7087C24.7793 18.6004 22.4191 20.9449 19.5081 20.9449C16.5971 20.8668 14.2369 18.5222 14.2369 15.7087Z" fill="url(#paint0_linear_1_310)"/>
<path d="M12.1127 26.3375C12.6634 26.7282 13.2928 27.0408 13.9222 27.3534L12.1127 26.3375Z" fill="url(#paint1_linear_1_310)"/>
<path d="M17.2265 31.1829C18.0133 31.3392 18.7213 31.4174 19.5081 31.4174C20.2948 31.4174 21.0029 31.3392 21.7897 31.2611L28.477 44.0781L31.388 37.2788L38.4688 38.0604L31.8601 25.3996C34.063 22.6643 35.2431 19.2256 35.2431 15.7087C35.4004 7.03373 28.477 -0.0781714 19.7441 -0.234477C11.0112 -0.390782 3.85177 6.56481 3.69442 15.2398C3.69442 15.3961 3.69442 15.5524 3.69442 15.7087C3.69442 19.2256 4.87455 22.6643 7.07745 25.3996L0.46875 37.9822L7.5495 37.2007L10.4605 44L17.2265 31.1829ZM12.6634 29.8543L14.3155 30.7922L10.6965 37.5133L9.28034 34.2309L5.3466 34.6998L8.96564 27.7442L10.5391 28.682L12.6634 29.8543ZM12.1126 26.3375C6.21202 22.2735 4.7172 14.2238 8.8083 8.36233C12.8994 2.50087 21.0029 1.01597 26.9035 5.07991C32.8042 9.14385 34.299 17.1936 30.2079 23.055C29.3425 24.3836 28.1623 25.4778 26.9035 26.3375L25.0153 27.3534C21.475 28.9947 17.4625 28.9947 13.9222 27.3534C13.2928 27.0408 12.742 26.7282 12.1126 26.3375ZM29.6572 34.2309L28.241 37.5133L24.7006 30.714L26.1955 29.8543C26.2741 29.8543 26.2741 29.7762 26.3528 29.7762L26.5888 29.6199C27.2182 29.3073 27.769 28.9165 28.3984 28.6039C28.3984 28.6039 28.477 28.6039 28.477 28.5257L29.9719 27.6661L33.5909 34.6217L29.6572 34.2309Z" fill="url(#paint2_linear_1_310)"/>
</g>
<defs>
<filter id="filter0_d_1_310" x="-3.53125" y="-0.237061" width="46" height="52.3152" filterUnits="userSpaceOnUse" color-interpolation-filters="sRGB">
<feFlood flood-opacity="0" result="BackgroundImageFix"/>
<feColorMatrix in="SourceAlpha" type="matrix" values="0 0 0 0 0 0 0 0 0 0 0 0 0 0 0 0 0 0 127 0" result="hardAlpha"/>
<feOffset dy="4"/>
<feGaussianBlur stdDeviation="2"/>
<feComposite in2="hardAlpha" operator="out"/>
<feColorMatrix type="matrix" values="0 0 0 0 0 0 0 0 0 0 0 0 0 0 0 0 0 0 0.25 0"/>
<feBlend mode="normal" in2="BackgroundImageFix" result="effect1_dropShadow_1_310"/>
<feBlend mode="normal" in="SourceGraphic" in2="effect1_dropShadow_1_310" result="shape"/>
</filter>
<linearGradient id="paint0_linear_1_310" x1="11.4833" y1="7.73712" x2="28.2973" y2="8.58865" gradientUnits="userSpaceOnUse">
<stop offset="0.0916" stop-color="#C6FF8D"/>
<stop offset="0.565" stop-color="#61F8AF"/>
<stop offset="1" stop-color="#07E3E1"/>
</linearGradient>
<linearGradient id="paint1_linear_1_310" x1="12.1127" y1="26.3375" x2="13.9981" y2="26.5064" gradientUnits="userSpaceOnUse">
<stop offset="0.0916" stop-color="#C6FF8D"/>
<stop offset="0.565" stop-color="#61F8AF"/>
<stop offset="1" stop-color="#07E3E1"/>
</linearGradient>
<linearGradient id="paint2_linear_1_310" x1="0.46875" y1="-0.237061" x2="40.3063" y2="1.48148" gradientUnits="userSpaceOnUse">
<stop offset="0.0916" stop-color="#C6FF8D"/>
<stop offset="0.565" stop-color="#61F8AF"/>
<stop offset="1" stop-color="#07E3E1"/>
</linearGradient>
</defs>
</svg>
