<svg width="157" height="34" viewBox="0 0 157 34" fill="none" xmlns="http://www.w3.org/2000/svg">
<path d="M147.693 0.237061H116.969V4.68829C116.969 6.21587 118.207 7.45345 119.735 7.45345H147.713C148.674 7.45345 149.45 8.23241 149.45 9.1901V17.9307C149.45 18.8917 148.671 19.6673 147.713 19.6673H124.132C120.922 19.6673 118.318 22.2706 118.318 25.4809V33.7562H123.431C124.594 33.7562 125.535 32.8153 125.535 31.6519V26.8837H147.693C152.65 26.8837 156.67 22.8641 156.67 17.9071V9.21033C156.67 4.25328 152.65 0.237061 147.693 0.237061Z" fill="white"/>
<path d="M90.9501 2.76616L78.5001 25.6731C78.2101 26.2059 77.6503 26.5398 77.0433 26.5398H53C52.1232 26.5398 51.4117 25.8282 51.4117 24.9515V9.03835C51.4117 8.16159 52.1232 7.45007 53 7.45007H72.383C73.9713 7.45007 75.2561 6.16529 75.2561 4.57701V0.237061H53.3473C48.2958 0.237061 44.1987 4.33421 44.1987 9.38568V24.6109C44.1987 29.6624 48.2958 33.7595 53.3473 33.7595H77.4176C80.4391 33.7595 83.2177 32.1072 84.661 29.4533L94.5549 11.2505L105.261 30.9472C106.206 32.6804 108.02 33.7629 109.993 33.7629H115L98.1563 2.77291C96.6051 -0.0900358 92.5046 -0.0900425 90.9501 2.76616Z" fill="white"/>
<path d="M95.4657 23.8083C95.1757 23.2924 94.4304 23.2924 94.1371 23.8083L89.18 32.6231C88.8934 33.1323 89.261 33.7562 89.8443 33.7562H99.7584C100.342 33.7562 100.706 33.1289 100.423 32.6231L95.4657 23.8083Z" fill="#04CBC9"/>
<path d="M24.0502 2.76623C22.499 -0.0899794 18.4018 -0.0899755 16.8473 2.75948L6.10352e-05 33.7562H5.0313C6.99052 33.7562 8.79461 32.6839 9.73207 30.9607L20.4454 11.2472L31.1519 30.9405C32.0961 32.6771 33.9137 33.7562 35.8864 33.7562H40.894L24.556 3.6902L24.0502 2.76623Z" fill="white"/>
<path d="M21.3554 23.8083C21.0654 23.2924 20.3202 23.2924 20.0268 23.8083L15.0697 32.6231C14.7831 33.1323 15.1507 33.7562 15.734 33.7562H25.6481C26.2315 33.7562 26.5957 33.1289 26.3125 32.6231L21.3554 23.8083Z" fill="#04CBC9"/>
</svg>
