<svg width="41" height="28" viewBox="0 0 41 28" fill="none" xmlns="http://www.w3.org/2000/svg">
<path d="M26.1505 24.4564C26.7629 24.4564 27.4629 23.8439 28.7754 22.7064L36.5626 15.7938C37.2626 15.1813 37.6126 14.8313 37.7875 14.4813C37.875 14.1313 37.875 13.7813 37.7875 13.4313C37.6126 13.0813 37.2626 12.7313 36.5626 12.1188L28.7754 5.20621C27.4629 4.0687 26.8504 3.4562 26.238 3.4562C25.713 3.4562 25.2755 3.6312 25.013 3.9812C24.5755 4.41871 24.5755 5.29371 24.5755 7.04373V20.7813C24.5755 22.5314 24.5755 23.4064 24.9255 23.8439C25.188 24.1939 25.6255 24.4564 26.1505 24.4564ZM26.1505 27.0814C24.9255 27.0814 23.7006 26.5564 22.9131 25.5939C21.9506 24.3689 21.9506 23.0564 21.9506 20.7813V7.04373C21.9506 4.85621 21.9506 3.4562 22.9131 2.31869C23.7006 1.35618 24.9255 0.831177 26.1505 0.831177C26.238 0.831177 26.238 0.831177 26.3255 0.831177C27.8129 0.918677 28.8629 1.79368 30.5253 3.2812L38.3125 10.1938C39.1875 10.9813 39.8875 11.5938 40.2375 12.6438C40.5874 13.5188 40.5874 14.4813 40.2375 15.4438C39.8875 16.4938 39.1875 17.1063 38.3125 17.8938L30.5253 24.8064C28.8629 26.2939 27.8129 27.1689 26.3255 27.2564C26.238 27.0814 26.1505 27.0814 26.1505 27.0814Z" fill="url(#paint0_linear_30_3)"/>
<path d="M4.69979 24.4563C5.31226 24.4563 6.01224 23.8438 7.32469 22.7063L15.1119 15.7938C15.8119 15.1813 16.1619 14.8313 16.3369 14.4813C16.4244 14.1313 16.4244 13.7813 16.3369 13.4313C16.1619 13.0813 15.8119 12.7313 15.1119 12.1187L7.23719 5.20619C5.92474 4.06868 5.31226 3.45617 4.69979 3.45617C4.17481 3.45617 3.73732 3.63118 3.47483 3.98118C3.12484 4.41868 3.12484 5.29369 3.12484 7.0437V20.7813C3.12484 22.5313 3.12484 23.4063 3.47483 23.8438C3.73732 24.1938 4.17481 24.4563 4.69979 24.4563ZM4.69979 27.0814C3.47483 27.0814 2.24988 26.5564 1.4624 25.5939C0.499939 24.3688 0.499939 23.0563 0.499939 20.7813V7.0437C0.499939 4.76869 0.499939 3.45617 1.4624 2.31867C2.24988 1.35616 3.38733 0.743652 4.69979 0.743652C4.78728 0.743652 4.78728 0.743652 4.87478 0.743652C6.36223 0.831153 7.32469 1.70616 8.98713 3.19367L16.7743 10.1062C17.6493 10.8937 18.3493 11.5062 18.6993 12.5562C19.0493 13.4313 19.0493 14.3938 18.6993 15.3563C18.3493 16.4063 17.6493 17.0188 16.7743 17.8063L8.98713 24.7188C7.32469 26.2064 6.27473 27.0814 4.78728 27.1689C4.78728 27.0814 4.69979 27.0814 4.69979 27.0814Z" fill="url(#paint1_linear_30_3)"/>
<defs>
<linearGradient id="paint0_linear_30_3" x1="21.9506" y1="0.831177" x2="41.4089" y2="1.51832" gradientUnits="userSpaceOnUse">
<stop offset="0.0916" stop-color="#C6FF8D"/>
<stop offset="0.565" stop-color="#61F8AF"/>
<stop offset="1" stop-color="#07E3E1"/>
</linearGradient>
<linearGradient id="paint1_linear_30_3" x1="0.499939" y1="0.743652" x2="19.8666" y2="1.42434" gradientUnits="userSpaceOnUse">
<stop offset="0.0916" stop-color="#C6FF8D"/>
<stop offset="0.565" stop-color="#61F8AF"/>
<stop offset="1" stop-color="#07E3E1"/>
</linearGradient>
</defs>
</svg>
