<svg width="40" height="44" viewBox="0 0 40 44" fill="none" xmlns="http://www.w3.org/2000/svg">
<g clip-path="url(#clip0_1_301)">
<path d="M19.8584 44C19.1243 44 18.3901 43.8147 17.8396 43.4442L10.0396 38.8126C4.07485 35.4779 0.404265 29.2716 0.3125 22.4168V9.81893C0.3125 8.05893 1.41368 6.57682 2.97368 5.9284L18.3901 0.185243C19.3078 -0.185283 20.3172 -0.185283 21.2349 0.185243L36.6513 5.9284C38.3031 6.48419 39.3125 8.05893 39.3125 9.81893V22.3242C39.3125 29.2716 35.5501 35.4779 29.6772 38.9052L21.8772 43.5368C21.2349 43.8147 20.5925 44 19.8584 44ZM19.8584 3.24209C19.7666 3.24209 19.6749 3.24209 19.5831 3.24209L4.07485 8.98524C3.70779 9.07788 3.52426 9.4484 3.52426 9.81893V22.3242C3.61603 28.0674 6.73603 33.2547 11.5996 36.0337L19.3996 40.6652C19.6749 40.8505 20.0419 40.8505 20.3172 40.6652L28.1172 36.0337C33.0725 33.2547 36.1007 28.0674 36.1925 22.3242V9.81893C36.1925 9.4484 36.009 9.07788 35.6419 8.98524L20.1337 3.24209C20.0419 3.24209 19.9501 3.24209 19.8584 3.24209Z" fill="url(#paint0_linear_1_301)"/>
<path d="M18.3902 28.4379C18.0231 28.4379 17.6561 28.3452 17.3808 28.0673L11.8749 23.4358C11.2325 22.88 11.1408 21.861 11.6914 21.12C12.2419 20.4715 13.2514 20.3789 13.8937 20.9347L18.2067 24.5473L25.5478 16.3958C26.0984 15.7473 27.1996 15.6547 27.8419 16.3031C28.4843 16.9516 28.5761 17.9705 27.9337 18.6189L19.6749 27.8821C19.3996 28.2526 18.9408 28.4379 18.3902 28.4379Z" fill="url(#paint1_linear_1_301)"/>
</g>
<defs>
<linearGradient id="paint0_linear_1_301" x1="0.3125" y1="-0.0926514" x2="41.1936" y2="1.72645" gradientUnits="userSpaceOnUse">
<stop offset="0.0916" stop-color="#C6FF8D"/>
<stop offset="0.565" stop-color="#61F8AF"/>
<stop offset="1" stop-color="#07E3E1"/>
</linearGradient>
<linearGradient id="paint1_linear_1_301" x1="11.3298" y1="15.8607" x2="29.1466" y2="17.0752" gradientUnits="userSpaceOnUse">
<stop offset="0.0916" stop-color="#C6FF8D"/>
<stop offset="0.565" stop-color="#61F8AF"/>
<stop offset="1" stop-color="#07E3E1"/>
</linearGradient>
<clipPath id="clip0_1_301">
<rect width="39" height="44" fill="white" transform="translate(0.3125)"/>
</clipPath>
</defs>
</svg>
